<svg xmlns="http://www.w3.org/2000/svg" viewBox="0 0 1200 750" role="img" aria-label="Goodwill poster">
  <defs>
    <linearGradient id="bg" x1="0" x2="1" y1="0" y2="1">
      <stop offset="0%" stop-color="#05080d"/>
      <stop offset="54%" stop-color="#0b0f14"/>
      <stop offset="100%" stop-color="#121821"/>
    </linearGradient>
    <radialGradient id="keyLight" cx="28%" cy="18%" r="56%">
      <stop offset="0%" stop-color="#9EC8FF" stop-opacity=".42"/>
      <stop offset="48%" stop-color="#2A3F5F" stop-opacity=".30"/>
      <stop offset="100%" stop-color="#0b0f14" stop-opacity="0"/>
    </radialGradient>
    <radialGradient id="warmLight" cx="80%" cy="28%" r="38%">
      <stop offset="0%" stop-color="#D6A85A" stop-opacity=".25"/>
      <stop offset="100%" stop-color="#D6A85A" stop-opacity="0"/>
    </radialGradient>
    <linearGradient id="frameGlow" x1="0" x2="1" y1="0" y2="1">
      <stop offset="0%" stop-color="#F5F7FA" stop-opacity=".22"/>
      <stop offset="100%" stop-color="#9EC8FF" stop-opacity=".08"/>
    </linearGradient>
    <clipPath id="mainFrameClip">
      <rect x="84" y="92" width="614" height="468" rx="28"/>
    </clipPath>
    <filter id="softNoise">
      <feTurbulence type="fractalNoise" baseFrequency=".9" numOctaves="2" stitchTiles="stitch"/>
      <feColorMatrix type="saturate" values="0"/>
      <feComponentTransfer>
        <feFuncA type="table" tableValues="0 .08"/>
      </feComponentTransfer>
    </filter>
  </defs>

  <rect width="1200" height="750" fill="url(#bg)"/>
  <rect width="1200" height="750" fill="url(#keyLight)"/>
  <rect width="1200" height="750" fill="url(#warmLight)"/>
  <rect width="1200" height="750" filter="url(#softNoise)" opacity=".32"/>

  <g opacity=".36">
    <path d="M64 612H1136" stroke="#F5F7FA" stroke-opacity=".10"/>
    <path d="M64 652H1136" stroke="#F5F7FA" stroke-opacity=".08"/>
    <path d="M170 58V692" stroke="#F5F7FA" stroke-opacity=".06"/>
    <path d="M1028 58V692" stroke="#F5F7FA" stroke-opacity=".06"/>
  </g>

  <rect x="58" y="62" width="1084" height="628" rx="34" fill="none" stroke="#F5F7FA" stroke-opacity=".12"/>

  <g clip-path="url(#mainFrameClip)">
    <rect x="84" y="92" width="614" height="468" fill="#101722"/>
    <rect x="84" y="92" width="614" height="468" fill="url(#frameGlow)"/>
    <path d="M84 436C208 371 342 359 486 399C574 424 642 422 698 390V560H84Z" fill="#05080d" opacity=".86"/>
    <path d="M122 388C176 350 242 332 320 334C404 336 474 363 530 414" fill="none" stroke="#9EC8FF" stroke-opacity=".20" stroke-width="3"/>
    <rect x="124" y="132" width="192" height="122" rx="16" fill="#1A2230" stroke="#F5F7FA" stroke-opacity=".18"/>
    <rect x="350" y="132" width="296" height="122" rx="16" fill="#101722" stroke="#F5F7FA" stroke-opacity=".16"/>
    <path d="M382 204H614" stroke="#F5F7FA" stroke-opacity=".22" stroke-width="10" stroke-linecap="round"/>
    <path d="M382 232H546" stroke="#9AA6B2" stroke-opacity=".28" stroke-width="8" stroke-linecap="round"/>
    <circle cx="258" cy="356" r="64" fill="#1A2230" stroke="#F5F7FA" stroke-opacity=".18"/>
    <path d="M180 520C188 432 218 382 258 382C298 382 328 432 336 520" fill="#080b10"/>
    <circle cx="258" cy="324" r="38" fill="#070a0f"/>
    <path d="M360 488C408 450 456 450 504 488" fill="none" stroke="#D6A85A" stroke-opacity=".52" stroke-width="8" stroke-linecap="round"/>
    <path d="M382 510H482" stroke="#F5F7FA" stroke-opacity=".25" stroke-width="6" stroke-linecap="round"/>
  </g>
  <rect x="84" y="92" width="614" height="468" rx="28" fill="none" stroke="#F5F7FA" stroke-opacity=".16"/>
  <rect x="102" y="110" width="578" height="432" rx="22" fill="none" stroke="#F5F7FA" stroke-opacity=".06"/>

  <g>
    <rect x="738" y="92" width="356" height="136" rx="22" fill="#111925" stroke="#F5F7FA" stroke-opacity=".10"/>
    <path d="M774 178H902" stroke="#9EC8FF" stroke-opacity=".62" stroke-width="8" stroke-linecap="round"/>
    <path d="M774 202H1034" stroke="#F5F7FA" stroke-opacity=".22" stroke-width="6" stroke-linecap="round"/>
    <text x="774" y="142" fill="#6B7785" font-family="IBM Plex Mono, SFMono-Regular, monospace" font-size="18" font-weight="500" letter-spacing="4">IMPACT FRAME</text>

    <rect x="738" y="252" width="160" height="162" rx="22" fill="#0b0f14" stroke="#F5F7FA" stroke-opacity=".10"/>
    <path d="M772 354C790 324 814 310 844 314C866 317 883 331 894 356" fill="none" stroke="#F5F7FA" stroke-opacity=".18" stroke-width="7" stroke-linecap="round"/>
    <circle cx="820" cy="300" r="28" fill="#1A2230" stroke="#9EC8FF" stroke-opacity=".22"/>

    <rect x="934" y="252" width="160" height="162" rx="22" fill="#121821" stroke="#F5F7FA" stroke-opacity=".10"/>
    <path d="M970 304H1058M970 338H1058M970 372H1028" stroke="#F5F7FA" stroke-opacity=".24" stroke-width="8" stroke-linecap="round"/>
    <path d="M970 396H1070" stroke="#D6A85A" stroke-opacity=".52" stroke-width="6" stroke-linecap="round"/>

    <rect x="738" y="438" width="356" height="122" rx="22" fill="#111925" stroke="#F5F7FA" stroke-opacity=".10"/>
    <path d="M774 500C810 476 850 476 890 500C929 524 970 524 1010 500C1038 483 1060 481 1078 494" fill="none" stroke="#9EC8FF" stroke-opacity=".54" stroke-width="7" stroke-linecap="round"/>
    <text x="774" y="532" fill="#F5F7FA" fill-opacity=".72" font-family="Manrope, Avenir Next, Arial, sans-serif" font-size="20" font-weight="500">Grounded human story asset</text>
  </g>

  <g>
    <text x="86" y="626" fill="#6B7785" font-family="IBM Plex Mono, SFMono-Regular, monospace" font-size="20" font-weight="500" letter-spacing="5">CASE STUDY / COMMUNITY STORY</text>
    <text x="84" y="674" fill="#F5F7FA" font-family="Inter Tight, Sora, Arial, sans-serif" font-size="68" font-weight="800" letter-spacing="-1">GOODWILL</text>
    <text x="742" y="648" fill="#F5F7FA" font-family="Manrope, Avenir Next, Arial, sans-serif" font-size="24" font-weight="500">Work. Dignity. Impact.</text>
    <text x="742" y="682" fill="#9AA6B2" font-family="Manrope, Avenir Next, Arial, sans-serif" font-size="20">Interview-led story frame.</text>
  </g>
</svg>
